<?xml version="1.0" encoding="UTF-8"?>
<svg id="uuid-0da7822a-190a-4446-9057-6e715bd8bff7" data-name="Layer 1" xmlns="http://www.w3.org/2000/svg" width="1080" height="465.88" viewBox="0 0 1080 465.88">
  <path d="M200.05,234.78v-19.06c-4.19-2.52-10.37-5.35-18.18-6.18-4.72-.5-14.26-1.51-23.29,4.35-2.65,1.72-7.36,5.4-10.41,11.78-1.09,2.28-4.31,9.28-2.21,17.6,1.35,5.37,4.29,8.82,5.88,10.65,4.93,5.66,9.28,6.48,22.85,13.85,4.09,2.22,7.33,4.12,9.29,5.29,5.87,4.43,8.49,11.81,6.59,18.41-2.97,10.34-15.05,11.91-15.82,12-8.17.93-14.13-3.94-16.32-5.74-7.48-6.11-9.16-14.47-9.56-16.91h-3.88v22.59c3.13,1.7,8.06,3.98,14.42,5.24,12.89,2.55,34.49,1.5,43.84-12.86.8-1.23,6.35-10.04,3.8-20.27-1.83-7.32-6.92-11.84-9.71-14.32-4.97-4.42-10.09-6.52-13.24-7.53-13.46-4.52-23.22-12.36-24.09-20.65-.35-3.31.71-6.35.71-6.35,2.15-6.2,8.3-9.91,12.71-10.76,8.53-1.66,19.35,5.65,23.62,18.76,1,.03,2,.06,3,.09Z" style="fill: #bb9152;"/>
  <path d="M431.96,234.53c-1-2.07-1.99-3.71-2.7-4.83-13.07-17.86-36.22-24.93-56.19-17.5-17.99,6.7-30.38,24.02-31.23,43.8-.21,2.74-1.71,27.56,17,42.84,8.81,7.19,18.34,9.19,23.42,9.85,3.98.59,25.11,3.35,40.76-10.52,18.79-16.64,17.37-46.35,8.94-63.64ZM401.14,301.35c-3.09,1.35-10.36,3.73-21.88.18-1.68-.96-4-2.48-6.36-4.77-9.09-8.85-10.13-20.89-10.94-30.35-1.14-13.33,1.12-24.88,3.88-33.53.72-1.66,4.99-11.18,15.71-14.99,13.36-4.74,24.63,3.66,25.59,4.4,7.67,5.93,9.66,14.36,11.12,21,4,18.2,2.23,49.62-17.12,58.06Z" style="fill: #bb9152;"/>
  <path d="M486.1,211.76v2.74c-.81-.05-3.43-.09-5.85,1.69-3.57,2.63-3.63,6.95-3.63,7.44-.09,12.18-.18,24.35-.26,36.53,11.18-12.09,22.35-24.18,33.53-36.26,2.11-2.36,2.24-5.61.65-7.54-1.52-1.84-4.05-1.78-4.4-1.76v-2.82h31.15v2.21c-2.8.92-6.84,2.55-11.08,5.56-2.32,1.65-3.79,3.06-8,7.19-6.02,5.9-9.02,8.85-10.88,10.74-3.28,3.32-7.99,8.07-13.88,13.88,12.52,16.43,25.05,32.85,37.57,49.28.73.8,2.08,2.07,4.13,3,2,.91,3.79,1.11,4.87,1.15v3.79h-26.12c-1.21-2.5-3.14-6.29-5.84-10.72-4.54-7.46-8.11-11.56-13.68-18.97-2.89-3.85-7-9.49-11.72-16.63l-6.35,6.35v30.88c.49.87,1.75,2.84,4.24,4.16,1.83.98,3.53,1.18,4.5,1.22.03,1.24.06,2.47.09,3.71h-34.85v-3.88c.9.11,3.06.24,5.44-.87,2.47-1.14,3.78-2.96,4.26-3.72.09-26.3.18-52.61.26-78.91-.42-1.02-1.44-3.13-3.69-4.9-2.54-2-5.19-2.41-6.28-2.51v-2h35.82Z" style="fill: #bb9152;"/>
  <path d="M649.06,211.67v1.76c.99.22,4.34,1.08,6.75,4.24,1.56,2.05,2.03,4.14,2.19,5.24.02,25.25.04,50.49.06,75.74-.28.91-1.06,2.94-3.06,4.62-2.88,2.41-6.21,2.31-7,2.26v3.26h33v-3.44c-1.33.03-6.08-.04-9.68-3.54-1.11-1.09-1.85-2.24-2.34-3.22.03-20.98.07-41.96.1-62.94l56.03,73.15h11.06l-.82-87.74c.23-.68,1.49-4.24,5.07-5.73,1.37-.57,2.64-.66,3.52-.63v-3.03h-29.06v2.79c.92.1,3.42.5,5.71,2.5,2.54,2.22,3.19,4.98,3.35,5.85.08,18.27.16,36.55.24,54.82l-52.94-65.97h-22.18Z" style="fill: #bb9152;"/>
  <path d="M761.65,235.92h-4.59l3.35-24.25h72.85l-56.59,89.54c12.06-.22,24.12-.43,36.18-.65,2.35-.71,7.19-2.52,11.53-7.06,3.54-3.71,5.18-7.6,5.94-9.85.98.03,1.96.06,2.94.09l-3.56,24.97-76.85-.59,53.29-88.35-30.91.79c-1.82.57-7.29,2.54-10.85,8.12-1.76,2.76-2.45,5.44-2.74,7.24Z" style="fill: #bb9152;"/>
  <path d="M928.62,302.54c-2.69-1.94-3.86-4.4-4.29-5.44l-31.94-85.43h-12.35c-9.26,26.73-18.51,53.46-27.77,80.19-.69,2-1.97,4.9-4.37,7.86-1.93,2.38-3.95,4.02-5.51,5.09v3.91h23.62c.05-1.32.11-2.63.17-3.94-2.83.71-5.45-.31-6.35-2.16-.56-1.16-.32-2.36-.15-2.96,1.99-8.03,3.98-16.06,5.97-24.09,10.61.05,21.21.1,31.81.15,1.97,4.6,3.84,9.61,5.47,15.04.46,1.51.88,3,1.27,4.47,1.29,2.97.66,6.25-1.44,8.06-1.93,1.66-4.37,1.46-4.9,1.4l.09,3.53,37.06-.53v-2.83c-1.13-.08-3.76-.43-6.39-2.32ZM867.99,268.6l13.15-38.29,13.41,38.29h-26.56Z" style="fill: #bb9152;"/>
  <path d="M223.1,214.6v-3h28.9c8.34,22.22,16.69,44.44,25.03,66.66l27.24-66.66h26.65v2.28c-1.12.11-3.81.53-6.23,2.6-.01.01-.03.02-.04.03-1.61,1.4-2.47,3.48-2.46,5.61.03,9.34.14,18.8.33,28.37.31,15.7.82,31.08,1.51,46.15.03.52.27,3.87,3.21,6.21,2.95,2.35,6.3,1.82,6.81,1.73v3.71l-34.94-.62-.04-2.78c.82-.01,3.15-.15,5.32-1.82.02-.01.03-.02.04-.03,1.68-1.31,2.57-3.41,2.5-5.54-.63-21-1.26-42-1.89-62.99-10.27,24.39-20.55,48.78-30.82,73.18h-3.06l-29.88-70c-1.23,20.22-2.46,40.45-3.68,60.67-.02.89.1,2.04.67,3.18,1.28,2.57,4.28,4.11,7.72,4.15.02.87.04,1.75.06,2.62h-29.94v-3.15c1.28-.08,3.42-.41,5.63-1.74,1.72-1.03,2.96-2.36,3.84-3.66,1.33-1.95,2.02-4.26,2.16-6.62,1.4-23.32,2.8-46.63,4.2-69.95.18-2.98-1.24-5.89-3.83-7.38-.03-.02-.05-.03-.08-.05-2.08-1.17-4.06-1.2-4.93-1.16Z" style="fill: #bb9152;"/>
  <g>
    <path d="M596.97,222.01c1.09.05,2.75.12,4.76.19,5.25.18,6.95.16,8.65.24,3.79.18,8.52.4,12.35,2.41,5.56,2.93,7.97,9,9,12.69h3.44l-.53-27-37.68.53v10.94Z" style="fill: #bb9152;"/>
    <path d="M558.35,291.59c1.5,1.75,3.84,4.11,7.17,6.14,6.33,3.87,12.04,4.02,28.12,3.83,23.32-.27,25.89-.75,29.3-2.74,6.75-3.94,10.38-10.07,12.26-14.12h1.76l-2.91,23.65h-65.91c-1.49-.49-3.62-1.45-5.56-3.35-5.13-5.05-4.37-12.32-4.24-13.41Z" style="fill: #bb9152;"/>
    <path d="M592.8,260.63v3.97c6.47.12,12.94.24,19.41.35l8.82,5.91v-15.26c-2.96,1.68-5.91,3.35-8.87,5.03h-19.37Z" style="fill: #bb9152;"/>
    <g>
      <path d="M574.22,208.54c1.55-2.34,2.97-5.37,1.94-7.91-1.43-3.51-6.63-3.8-6.61-5.83.02-1.6,3.25-2.46,7-4.41,2.53-1.32,4.65-2.8,6.39-4.22,3.2-2.63,4.7-6.87,3.59-10.86-.32-1.17-.86-2.26-1.68-3.2-3.94-4.49-11.76-2.22-12.97-5.19-.58-1.43.34-4.15,7.39-9.85-.78-.31-5.91-2.23-11.02.52-.47.25-6.27,3.5-6.48,9.46-.04,1.2-.11,3.22,1.17,4.93,3.33,4.44,11.76,1.41,13.22,4.54.26.56.34,1.41-.27,2.75-.51,1.1-1.29,2.05-2.25,2.79-1.03.81-2.4,1.82-4.05,2.9-4.79,3.13-6.95,3.54-8.14,5.97-.86,1.75-1.23,4.56.04,6.63,2.12,3.46,7,1.9,10.4,5.67,1.55,1.71,2.11,3.77,2.33,5.32Z" style="fill: #b0b0b0;"/>
      <g>
        <rect x="559.51" y="208" width="28.53" height="57.85" style="fill: #f5f5f5;"/>
        <g>
          <path d="M588.03,297.46l-8.45.02c-11.08.03-20.07-11.27-20.07-25.22v-6.42h28.53c0,10.54,0,21.08-.01,31.62Z" style="fill: #bb9152;"/>
          <circle cx="575.97" cy="271.44" r=".57" style="fill: #f7fffe;"/>
          <circle cx="580.87" cy="267.66" r=".57" style="fill: #f7fffe;"/>
          <circle cx="569.34" cy="267.66" r=".57" style="fill: #f7fffe;"/>
          <circle cx="562.12" cy="268.81" r=".57" style="fill: #f7fffe;"/>
          <circle cx="564.47" cy="274.26" r=".57" style="fill: #f7fffe;"/>
          <circle cx="571.06" cy="275.19" r=".57" style="fill: #f7fffe;"/>
          <circle cx="581.17" cy="276.47" r=".57" style="fill: #f7fffe;"/>
          <circle cx="585.72" cy="281.48" r=".57" style="fill: #f7fffe;"/>
          <circle cx="577.12" cy="281.66" r=".57" style="fill: #f7fffe;"/>
          <circle cx="569.34" cy="282.24" r=".57" style="fill: #f7fffe;"/>
          <circle cx="567.75" cy="288.24" r=".57" style="fill: #f7fffe;"/>
          <circle cx="573.45" cy="293.42" r=".57" style="fill: #f7fffe;"/>
          <circle cx="575.73" cy="287.67" r=".57" style="fill: #f7fffe;"/>
          <circle cx="583.2" cy="287.99" r=".57" style="fill: #f7fffe;"/>
          <circle cx="580.6" cy="294.57" r=".57" style="fill: #f7fffe;"/>
          <circle cx="586.65" cy="293.42" r=".57" style="fill: #f7fffe;"/>
          <circle cx="563.26" cy="280.34" r=".57" style="fill: #f7fffe;"/>
          <circle cx="585.5" cy="270.87" r=".57" style="fill: #f7fffe;"/>
        </g>
      </g>
    </g>
  </g>
</svg>